HIERARCHY
ROOT Hips
{
	OFFSET 0.00000 0.00000 0.00000
	CHANNELS 6 Xposition Yposition Zposition Zrotation Yrotation Xrotation 
	JOINT LHipJoint
	{
		OFFSET 0 0 0
		CHANNELS 3 Zrotation Yrotation Xrotation
		JOINT LeftUpLeg
		{
			OFFSET 1.62964 -1.40469 0.78906
			CHANNELS 3 Zrotation Yrotation Xrotation
			JOINT LeftLeg
			{
				OFFSET 2.29640 -6.30932 0.00000
				CHANNELS 3 Zrotation Yrotation Xrotation
				JOINT LeftFoot
				{
					OFFSET 2.29451 -6.30412 0.00000
					CHANNELS 3 Zrotation Yrotation Xrotation
					JOINT LeftToeBase
					{
						OFFSET 0.03611 -0.09921 1.56387
						CHANNELS 3 Zrotation Yrotation Xrotation
						End Site
						{
							OFFSET 0.00000 -0.00000 0.80291
						}
					}
				}
			}
		}
	}
	JOINT RHipJoint
	{
		OFFSET 0 0 0
		CHANNELS 3 Zrotation Yrotation Xrotation
		JOINT RightUpLeg
		{
			OFFSET -1.73712 -1.40469 0.78906
			CHANNELS 3 Zrotation Yrotation Xrotation
			JOINT RightLeg
			{
				OFFSET -2.28137 -6.26801 0.00000
				CHANNELS 3 Zrotation Yrotation Xrotation
				JOINT RightFoot
				{
					OFFSET -2.28681 -6.28298 0.00000
					CHANNELS 3 Zrotation Yrotation Xrotation
					JOINT RightToeBase
					{
						OFFSET -0.15927 -0.43759 1.61103
						CHANNELS 3 Zrotation Yrotation Xrotation
						End Site
						{
							OFFSET -0.00000 -0.00000 0.84630
						}
					}
				}
			}
		}
	}
	JOINT LowerBack
	{
		OFFSET 0 0 0
		CHANNELS 3 Zrotation Yrotation Xrotation
		JOINT Spine
		{
			OFFSET -0.04227 2.04338 -0.00225
			CHANNELS 3 Zrotation Yrotation Xrotation
			JOINT Spine1
			{
				OFFSET -0.02148 2.04482 -0.04273
				CHANNELS 3 Zrotation Yrotation Xrotation
				JOINT Neck
				{
					OFFSET 0 0 0
					CHANNELS 3 Zrotation Yrotation Xrotation
					JOINT Neck1
					{
						OFFSET 0.09180 1.44629 0.19359
						CHANNELS 3 Zrotation Yrotation Xrotation
						JOINT Head
						{
							OFFSET 0.00887 1.40645 0.14750
							CHANNELS 3 Zrotation Yrotation Xrotation
							End Site
							{
								OFFSET -0.00669 1.50671 0.03707
							}
						}
					}
				}
				JOINT LeftShoulder
				{
					OFFSET 0 0 0
					CHANNELS 3 Zrotation Yrotation Xrotation
					JOINT LeftArm
					{
						OFFSET 2.17674 1.86763 -0.06520
						CHANNELS 3 Zrotation Yrotation Xrotation
						JOINT LeftForeArm
						{
							OFFSET 4.65776 -0.00000 0.00000
							CHANNELS 3 Zrotation Yrotation Xrotation
							JOINT LeftHand
							{
								OFFSET 3.55539 -0.00000 0.00000
								CHANNELS 3 Zrotation Yrotation Xrotation
								JOINT LeftFingerBase
								{
									OFFSET 0 0 0
									CHANNELS 3 Zrotation Yrotation Xrotation
									JOINT LeftHandIndex1
									{
										OFFSET 0.70726 -0.00000 0.00000
										CHANNELS 3 Zrotation Yrotation Xrotation
										End Site
										{
											OFFSET 0.57022 -0.00000 0.00000
										}
									}
								}
								JOINT LThumb
								{
									OFFSET 0 0 0
									CHANNELS 3 Zrotation Yrotation Xrotation
									End Site
									{
										OFFSET 0.57892 -0.00000 0.57892
									}
								}
							}
						}
					}
				}
				JOINT RightShoulder
				{
					OFFSET 0 0 0
					CHANNELS 3 Zrotation Yrotation Xrotation
					JOINT RightArm
					{
						OFFSET -2.80694 1.55459 -0.32496
						CHANNELS 3 Zrotation Yrotation Xrotation
						JOINT RightForeArm
						{
							OFFSET -4.71925 -0.00000 -0.00000
							CHANNELS 3 Zrotation Yrotation Xrotation
							JOINT RightHand
							{
								OFFSET -3.56990 -0.00000 0.00000
								CHANNELS 3 Zrotation Yrotation Xrotation
								JOINT RightFingerBase
								{
									OFFSET 0 0 0
									CHANNELS 3 Zrotation Yrotation Xrotation
									JOINT RightHandIndex1
									{
										OFFSET -0.50776 -0.00000 0.00000
										CHANNELS 3 Zrotation Yrotation Xrotation
										End Site
										{
											OFFSET -0.40937 -0.00000 0.00000
										}
									}
								}
								JOINT RThumb
								{
									OFFSET 0 0 0
									CHANNELS 3 Zrotation Yrotation Xrotation
									End Site
									{
										OFFSET -0.41562 -0.00000 0.41562
									}
								}
							}
						}
					}
				}
			}
		}
	}
}
MOTION
Frames: 7
Frame Time: 0.285714
0.00 0.00 0.00 0 0 0 0 0 0 -21 0 0 0 0 0 0 0 0 0 0 0 0 0 0 21 0 0 0 0 0 0 0 0 0 0 0 0 0 0 0 0 0 0 0 0 0 0 -16 0 0 21 0 0 11 0 0 0 -8 0 0 0 0 0 0 0 0 0 0 0 0 0 0 0 0 0 0 0 0 8 0 0 0 0 0 0 0 0 0 0 0 0 0 0 0 0 0
0.00 0.00 0.00 179.8970 -4.0957 -146.2440 0.0000 0.0000 0.0000 -9.5019 -26.6615 -40.0045 2.1811 9.2336 26.5288 0.9853 -3.5511 -17.9055 3.2016 -11.0144 -32.3286 0.0000 0.0000 0.0000 13.5434 22.6091 -37.3854 -1.5850 -7.9421 22.5385 -2.3074 -2.5966 -29.7294 -2.6762 10.1514 -29.4684 -3.9638 -1.3272 -22.5096 0.2286 -1.1728 -1.5611 2.1246 -0.9186 10.9726 -1.3559 -0.1140 2.7225 6.0183 -1.0801 -23.7559 2.4167 -1.7984 -7.6913 -0.0000 0.0000 0.0000 -78.8549 3.5312 26.9933 12.9201 -21.1700 -2.4243 -0.0000 -0.0000 4.3154 20.2273 -11.2764 -4.1211 -7.1250 0.0000 -0.0000 -4.8382 18.0085 3.1166 -0.0000 0.0000 0.0000 88.0550 -9.8283 4.2374 -13.8755 22.5565 -2.7802 0.0000 0.0000 2.7977 -6.1755 -48.1556 4.6084 7.1250 -0.0000 -0.0000 55.3135 -71.5084 -38.2064
0.00 0.00 0.00 179.5650 -3.5950 -141.2950 0.0000 0.0000 0.0000 -5.4112 -27.0432 -56.6555 5.5739 14.0023 43.2468 1.6148 -8.5150 -22.7581 2.8686 -10.4793 -30.5433 0.0000 0.0000 0.0000 10.0034 22.6955 -54.1630 -4.7917 -13.1453 39.9149 -3.5247 1.4337 -35.2571 -2.8011 10.3659 -30.1700 -4.1940 -1.0530 -16.5504 0.3263 -0.8848 -1.4060 2.5146 -0.6756 7.8445 -1.3062 0.1236 -0.1598 5.7871 -1.1982 -24.5148 2.3436 -2.0192 -7.4305 -0.0000 0.0000 0.0000 -78.7146 3.6428 24.3469 11.6272 -19.2432 -1.9777 -0.0000 -0.0000 6.0531 19.3851 -10.6764 -3.7297 -7.1250 0.0000 -0.0000 -5.4208 18.7062 3.4112 -0.0000 0.0000 0.0000 87.5113 -10.6195 4.4891 -13.1069 21.4436 -2.4922 0.0000 0.0000 4.1125 -7.3524 -52.8164 5.8694 7.1250 -0.0000 -0.0000 68.3100 -73.9267 -52.0742
0.00 0.00 0.00 178.5870 -2.3108 -141.8800 0.0000 0.0000 0.0000 -6.9330 -25.5949 -63.6524 10.2069 17.5245 60.1775 1.6979 -17.4207 -24.7065 0.1160 -2.1960 -6.0476 0.0000 0.0000 0.0000 7.9561 23.2979 -61.3836 -9.3254 -17.0126 57.2088 -5.2058 3.9489 -42.5911 -3.1299 10.9024 -31.9514 -4.8000 -0.7405 -12.2543 -0.5975 -0.3893 -0.4625 2.0049 -0.3749 6.4227 -0.3944 -0.0002 -1.2991 5.3857 -1.6092 -24.9760 2.0865 -2.3618 -7.3842 -0.0000 0.0000 0.0000 -79.7950 -1.7612 18.7242 8.3744 -14.1580 -1.0418 -0.0000 -0.0000 13.3175 19.7889 -9.8334 -3.5163 -7.1250 0.0000 -0.0000 -5.1244 19.5641 3.1250 -0.0000 0.0000 0.0000 88.6695 -4.4697 5.6793 -11.3404 18.8081 -1.8842 0.0000 0.0000 9.9871 -11.9504 -50.7686 9.3105 7.1250 -0.0000 -0.0000 58.7620 -74.8958 -44.6505
0.00 0.00 0.00 178.4800 1.6878 -148.6290 0.0000 0.0000 0.0000 -16.6490 -19.9872 -32.4569 3.9889 12.1456 36.2489 0.1506 -4.2543 -7.0710 2.9211 -10.5662 -30.8304 0.0000 0.0000 0.0000 14.5701 21.6734 -32.0380 -3.8043 -11.8954 35.3629 -0.9318 1.0171 -17.9307 -2.3408 9.5425 -27.5075 -4.0963 -2.2353 -22.4099 -1.1487 -1.1508 -3.0528 0.7821 -0.3780 9.2446 -0.7482 -0.2563 -0.5478 4.9831 0.8640 -12.1070 1.7431 0.5697 -3.8831 -0.0000 0.0000 0.0000 -80.1507 5.7773 28.4928 13.6739 -22.2667 -2.7033 -0.0000 -0.0000 5.3496 24.1375 -13.6296 -6.0277 -7.1250 0.0000 -0.0000 -2.2267 15.1077 1.5706 -0.0000 0.0000 0.0000 85.4222 -10.2358 30.4220 -28.2819 39.3745 -10.3020 0.0000 -0.0000 -7.2605 -10.1941 -52.0225 8.0677 7.1250 -0.0000 -0.0000 64.1314 -74.7231 -49.1881
0.00 0.00 0.00 178.3550 0.9152 -149.2020 0.0000 0.0000 0.0000 -16.5852 -17.2920 -29.0210 2.4176 9.6865 27.9674 0.5296 6.3125 13.0391 3.9160 -12.0478 -35.9012 0.0000 0.0000 0.0000 14.8558 18.0139 -30.5508 -2.7773 -10.3255 30.0374 -0.0242 -3.6685 3.5495 -2.0514 8.9724 -25.7091 -3.9617 -3.3160 -25.4629 -0.6894 -2.2683 -3.7157 0.8112 -0.8077 10.1814 -0.6046 0.5962 -1.2161 4.2617 1.3394 -6.9817 1.4266 0.7211 -2.0190 0.0000 -0.0000 0.0000 -79.6881 7.6575 29.5921 14.6479 -23.6533 -3.0833 -0.0000 -0.0000 3.5172 21.4949 -11.5726 -4.5171 -7.1250 0.0000 -0.0000 -3.9576 17.5861 2.5831 0.0000 -0.0000 0.0000 85.3404 -11.7953 30.7455 -31.0470 41.7741 -12.1011 0.0000 -0.0000 -8.3761 -13.6643 -56.7701 11.4949 7.1250 -0.0000 -0.0000 82.1064 -76.9432 -68.6263
0.00 0.00 0.00 177.6860 -2.4082 -151.2820 0.0000 0.0000 0.0000 -13.1821 -20.4955 -35.5458 1.0877 6.6282 18.6185 0.6734 11.4351 15.6013 5.0584 -13.4493 -41.0744 0.0000 0.0000 0.0000 10.8096 18.7912 -32.2827 -0.4792 -4.4393 12.3160 0.4777 -16.5656 5.9889 -1.8326 8.5082 -24.2687 -4.1636 -2.0100 -23.1466 -0.1347 -2.4687 -4.2186 1.4439 -1.6530 8.4003 -2.1975 1.0132 -1.3504 5.5129 2.1281 -8.1010 2.1131 1.1656 -2.4349 0.0000 -0.0000 0.0000 -75.8880 4.9611 38.5813 20.3011 -31.0034 -5.6856 -0.0000 0.0000 -2.1885 23.7348 -12.9926 -5.6456 -7.1250 0.0000 -0.0000 -2.4652 15.8418 1.7002 0.0000 -0.0000 0.0000 83.6846 -12.8829 30.5851 -32.9389 43.2831 -13.3802 0.0000 -0.0000 -11.0735 -6.5482 -53.0405 5.2406 7.1250 -0.0000 -0.0000 69.4471 -73.6988 -52.8553
